<?xml version="1.0" encoding="UTF-8"?>
<!DOCTYPE svg PUBLIC "-//W3C//DTD SVG 1.1//EN" "http://www.w3.org/Graphics/SVG/1.1/DTD/svg11.dtd">
<!-- Creator: CorelDRAW X6 -->
<svg xmlns="http://www.w3.org/2000/svg" viewBox="0 0 5907 4766">
  <path fill="#FEFEFE" d="M3214 2868c-278,-511 -1487,-568 -1823,-494 295,-77 323,-123 1101,-120 -260,-165 -654,-159 -922,-146 209,-47 600,-106 1008,-28 -220,-148 -509,-180 -790,-191 280,-41 561,-75 855,6 -226,-154 -486,-186 -718,-173 194,-51 490,-44 657,-23 246,292 444,642 633,1168zm-2079 -2228c1031,536 1669,1014 2084,2228 233,-654 569,-1231 1252,-1660 -18,-223 -632,-621 -1025,9 -420,-847 -1091,-1032 -1594,-1217 412,221 891,493 1166,993 -443,-423 -917,-625 -1417,-816 480,270 966,557 1243,1030 -473,-448 -975,-599 -1473,-816 506,331 989,559 1300,1016 -414,-261 -867,-566 -1536,-767zm2955 423c34,0 61,27 61,61 0,34 -28,61 -61,61 -34,0 -61,-27 -61,-61 0,-34 28,-61 61,-61z"/>
  <path fill="#FEFEFE" d="M1265 3297l64 0c42,0 77,9 104,28 27,18 40,42 40,70 0,34 -19,63 -58,86 61,20 91,56 91,106 0,35 -16,63 -47,85 -32,21 -74,32 -127,32l-67 0 0 -407zm56 49l0 120c30,0 54,-6 70,-18 16,-11 24,-27 24,-47 0,-17 -7,-31 -22,-41 -15,-10 -34,-15 -59,-15 -5,0 -10,0 -14,1zm0 169l0 139 4 0c47,0 79,-8 97,-23 17,-15 26,-31 26,-47 0,-21 -10,-38 -29,-50 -19,-13 -46,-19 -79,-19l-19 0zm451 -17c0,-59 22,-109 66,-151 44,-42 98,-63 160,-63 61,0 113,21 157,63 44,42 66,92 66,150 0,61 -22,113 -65,156 -43,42 -96,64 -159,64 -62,0 -115,-21 -159,-64 -44,-43 -66,-94 -66,-155zm390 3c0,-45 -16,-83 -49,-113 -32,-31 -72,-46 -120,-46 -45,0 -83,16 -115,47 -32,31 -48,69 -48,112 0,44 16,82 49,113 33,31 73,46 121,46 44,0 82,-16 114,-47 32,-31 48,-69 48,-112zm346 -204l56 0 0 351 132 0 0 56 -188 0 0 -407zm444 0l226 0 0 56 -170 0 0 101 170 0 0 56 -170 0 0 139 170 0 0 56 -226 0 0 -407zm472 0l250 0 0 56 -97 0 0 351 -56 0 0 -351 -97 0 0 -56zm516 0l56 0 0 407 -56 0 0 -407zm347 -16l301 309 0 -293 56 0 0 426 -301 -308 0 289 -56 0 0 -423z"/>
  <path fill="#FEFEFE" d="M523 4461c0,-35 0,-63 1,-84 1,-25 8,-35 28,-38 8,-2 14,-2 20,-2 5,0 9,-3 9,-7 0,-6 -5,-7 -15,-7 -24,0 -62,2 -85,2 -21,0 -74,-2 -112,-2 -10,0 -16,1 -16,7 0,4 5,7 12,7 10,0 22,1 28,2 23,7 31,14 31,38 1,21 1,48 1,83l0 64c0,12 -3,20 -14,25 -17,7 -32,7 -51,7 -155,0 -253,-110 -253,-261 0,-86 26,-138 67,-171 50,-40 101,-41 140,-41 82,0 136,31 158,54 19,20 23,42 25,58 1,6 2,9 7,9 6,0 10,-5 10,-16 0,-88 5,-107 5,-116 0,-5 -2,-7 -10,-8 -17,-1 -43,-5 -58,-7 -15,-3 -78,-12 -129,-12 -61,0 -126,5 -196,45 -67,39 -127,117 -127,230 0,194 158,275 336,275 57,0 129,-7 178,-31 9,-5 9,-6 9,-25l0 -78zm172 -100c0,102 29,154 66,186 53,46 128,48 166,48 47,0 102,-7 154,-50 61,-50 69,-133 69,-211l0 -75c0,-107 1,-126 2,-149 2,-25 7,-35 26,-38 9,-2 13,-2 21,-2 8,0 12,-2 12,-7 0,-5 -5,-7 -15,-7 -28,0 -77,2 -85,2 -1,0 -50,-2 -87,-2 -10,0 -15,2 -15,7 0,5 4,7 12,7 8,0 21,1 26,2 23,7 29,14 31,38 1,22 2,42 2,149l0 88c0,72 -2,133 -42,171 -29,28 -66,37 -97,37 -25,0 -59,-2 -92,-28 -36,-28 -55,-68 -55,-170l0 -98c0,-107 0,-126 2,-149 2,-25 7,-35 26,-38 9,-2 13,-2 21,-2 7,0 12,-2 12,-7 0,-5 -5,-7 -16,-7 -26,0 -75,2 -93,2 -21,0 -70,-2 -109,-2 -11,0 -16,2 -16,7 0,5 4,7 12,7 10,0 22,1 28,2 23,7 30,13 31,38 2,22 1,42 1,149l0 103zm851 47c3,0 6,1 7,5l56 142c3,8 -2,15 -7,16 -7,1 -9,3 -9,7 0,5 8,5 21,6 61,2 114,2 140,2 27,0 31,-2 31,-7 0,-5 -3,-7 -10,-7 -8,0 -17,-1 -27,-2 -13,-2 -34,-12 -62,-75 -46,-107 -168,-391 -185,-429 -7,-16 -11,-22 -21,-22 -7,0 -13,8 -21,28l-190 439c-15,36 -27,57 -60,62 -7,0 -15,1 -21,1 -6,0 -8,3 -8,7 0,6 4,7 13,7 38,0 77,-2 84,-2 23,0 57,2 81,2 7,0 12,-2 12,-7 0,-4 -2,-7 -11,-7l-11 0c-22,0 -29,-7 -29,-20 0,-8 3,-26 11,-43l39 -95c2,-4 2,-5 7,-5l171 0zm-156 -39c-2,0 -4,-2 -2,-5l70 -175c1,-2 2,-7 4,-7 2,0 2,4 3,7l69 176c1,2 0,4 -3,4l-140 0zm476 12c0,64 0,120 -3,149 -2,21 -7,34 -21,37 -7,2 -15,2 -26,2 -9,0 -12,4 -12,7 0,5 5,7 14,7 15,0 33,-1 50,-2 17,0 33,-1 41,-1 18,0 45,2 74,4 29,2 60,4 87,4 134,0 211,-50 244,-83 41,-40 79,-107 79,-196 0,-83 -32,-142 -69,-178 -79,-80 -202,-80 -292,-80 -44,0 -96,2 -118,2 -21,0 -67,-2 -105,-2 -11,0 -17,2 -17,7 0,5 5,7 12,7 11,0 23,1 29,2 23,7 30,14 31,38 1,22 1,42 1,149l0 124zm97 -135c0,-55 0,-113 1,-137 0,-8 2,-12 9,-14 6,-3 30,-5 45,-5 57,0 136,7 203,67 32,28 68,86 68,175 0,73 -15,135 -62,174 -44,36 -93,48 -159,48 -57,0 -86,-15 -95,-28 -6,-7 -7,-32 -8,-50 -1,-14 -2,-68 -2,-142l0 -88zm791 161c3,0 6,1 7,5l56 142c3,8 -2,15 -7,16 -7,1 -9,3 -9,7 0,5 8,5 21,6 61,2 114,2 140,2 27,0 31,-2 31,-7 0,-5 -3,-7 -10,-7 -8,0 -17,-1 -27,-2 -13,-2 -34,-12 -62,-75 -46,-107 -168,-391 -185,-429 -7,-16 -11,-22 -21,-22 -7,0 -13,8 -21,28l-190 439c-15,36 -27,57 -60,62 -7,0 -15,1 -21,1 -6,0 -8,3 -8,7 0,6 4,7 13,7 38,0 77,-2 84,-2 23,0 57,2 81,2 7,0 12,-2 12,-7 0,-4 -2,-7 -11,-7l-11 0c-22,0 -29,-7 -29,-20 0,-8 3,-26 11,-43l39 -95c2,-4 2,-5 7,-5l171 0zm-156 -39c-2,0 -4,-2 -2,-5l70 -175c1,-2 2,-7 4,-7 2,0 2,4 3,7l69 176c1,2 0,4 -3,4l-140 0zm573 -112c0,-107 0,-126 2,-149 2,-25 7,-35 27,-38 8,-2 20,-2 28,-2 9,0 13,-2 13,-7 0,-5 -5,-7 -16,-7 -28,0 -88,2 -105,2 -20,0 -66,-2 -100,-2 -11,0 -16,2 -16,7 0,5 4,7 12,7 9,0 18,1 24,2 23,7 30,14 31,38 1,22 1,42 1,149l0 124c0,64 0,120 -3,149 -2,21 -7,34 -21,37 -7,2 -15,2 -26,2 -9,0 -12,4 -12,7 0,5 5,7 14,7 15,0 33,-1 50,-2 17,0 33,-1 41,-1 30,0 60,1 97,2 36,2 78,2 130,2 38,0 41,-3 46,-19 6,-21 11,-73 11,-81 0,-8 -2,-16 -7,-16 -6,0 -7,4 -8,11 -2,13 -9,33 -18,42 -18,19 -46,20 -85,20 -56,0 -84,-4 -97,-15 -16,-13 -16,-58 -16,-148l0 -124zm577 150c3,0 6,1 7,5l56 142c3,8 -2,15 -7,16 -7,1 -9,3 -9,7 0,5 8,5 21,6 61,2 114,2 140,2 27,0 31,-2 31,-7 0,-5 -3,-7 -10,-7 -8,0 -17,-1 -27,-2 -13,-2 -34,-12 -62,-75 -46,-107 -168,-391 -185,-429 -7,-16 -11,-22 -21,-22 -7,0 -13,8 -21,28l-190 439c-15,36 -27,57 -60,62 -7,0 -15,1 -21,1 -6,0 -8,3 -8,7 0,6 4,7 13,7 38,0 77,-2 84,-2 23,0 57,2 81,2 7,0 12,-2 12,-7 0,-4 -2,-7 -11,-7l-11 0c-22,0 -29,-7 -29,-20 0,-8 3,-26 11,-43l39 -95c2,-4 2,-5 7,-5l171 0zm-156 -39c-2,0 -4,-2 -2,-5l70 -175c1,-2 2,-7 4,-7 2,0 2,4 3,7l69 176c1,2 0,4 -3,4l-140 0zm476 90c0,138 1,207 -55,261 -14,14 -25,22 -35,27 -12,6 -16,9 -16,12 0,3 2,7 6,7 3,0 10,-1 15,-3 16,-7 27,-13 36,-18 70,-41 115,-91 130,-134 15,-40 17,-84 17,-124 0,-36 -2,-69 -2,-99l0 -131c0,-107 0,-126 2,-149 2,-25 7,-35 27,-38 8,-2 13,-2 21,-2 9,0 13,-2 13,-7 0,-5 -5,-7 -15,-7 -29,0 -75,2 -93,2 -19,0 -72,-2 -110,-2 -11,0 -17,2 -17,7 0,5 5,7 12,7 11,0 23,1 29,2 23,7 30,14 31,38 1,22 1,42 1,149l0 202zm510 -51c3,0 6,1 7,5l56 142c3,8 -2,15 -7,16 -7,1 -9,3 -9,7 0,5 8,5 21,6 61,2 114,2 140,2 27,0 31,-2 31,-7 0,-5 -3,-7 -10,-7 -8,0 -17,-1 -27,-2 -13,-2 -34,-12 -62,-75 -46,-107 -168,-391 -185,-429 -7,-16 -11,-22 -21,-22 -7,0 -13,8 -21,28l-190 439c-15,36 -27,57 -60,62 -7,0 -15,1 -21,1 -6,0 -8,3 -8,7 0,6 4,7 13,7 38,0 77,-2 84,-2 23,0 57,2 81,2 7,0 12,-2 12,-7 0,-4 -2,-7 -11,-7l-11 0c-22,0 -29,-7 -29,-20 0,-8 3,-26 11,-43l39 -95c2,-4 2,-5 7,-5l171 0zm-156 -39c-2,0 -4,-2 -2,-5l70 -175c1,-2 2,-7 4,-7 2,0 2,4 3,7l69 176c1,2 0,4 -3,4l-140 0zm476 12c0,64 0,120 -3,149 -2,21 -7,34 -21,37 -7,2 -15,2 -26,2 -9,0 -12,4 -12,7 0,5 5,7 14,7 29,0 75,-2 89,-2 11,0 71,2 113,2 9,0 15,-2 15,-7 0,-3 -3,-7 -9,-7 -9,0 -25,-1 -36,-2 -22,-3 -26,-17 -28,-37 -3,-30 -4,-84 -4,-149l0 -10c0,-4 2,-6 6,-6l65 2c5,0 9,1 13,5 9,11 40,58 69,96 40,55 68,88 99,103 19,10 39,14 79,14l69 0c9,0 14,-2 14,-7 0,-3 -3,-7 -9,-7 -6,0 -10,0 -17,-2 -12,-2 -37,-6 -78,-46 -44,-44 -95,-107 -159,-187 71,-57 101,-103 101,-155 0,-47 -31,-83 -51,-97 -39,-26 -92,-30 -138,-30 -22,0 -88,2 -113,2 -15,0 -61,-2 -99,-2 -11,0 -17,2 -17,7 0,5 5,7 12,7 11,0 23,1 29,2 23,7 30,14 31,38 1,22 1,42 1,149l0 124zm93 -278c0,-6 2,-8 7,-10 7,-2 25,-2 43,-2 43,0 111,26 111,125 0,58 -25,88 -47,104 -12,9 -22,12 -51,12 -18,0 -40,-2 -55,-7 -5,-2 -7,-5 -7,-12l0 -209zm676 305c3,0 6,1 7,5l56 142c3,8 -2,15 -7,16 -7,1 -9,3 -9,7 0,5 8,5 21,6 61,2 114,2 140,2 27,0 31,-2 31,-7 0,-5 -3,-7 -10,-7 -8,0 -17,-1 -27,-2 -13,-2 -34,-12 -62,-75 -46,-107 -168,-391 -185,-429 -7,-16 -11,-22 -21,-22 -7,0 -13,8 -21,28l-190 439c-15,36 -27,57 -60,62 -7,0 -15,1 -21,1 -6,0 -8,3 -8,7 0,6 4,7 13,7 38,0 77,-2 84,-2 23,0 57,2 81,2 7,0 12,-2 12,-7 0,-4 -2,-7 -11,-7l-11 0c-22,0 -29,-7 -29,-20 0,-8 3,-26 11,-43l39 -95c2,-4 2,-5 7,-5l171 0zm-156 -39c-2,0 -4,-2 -2,-5l70 -175c1,-2 2,-7 4,-7 2,0 2,4 3,7l69 176c1,2 0,4 -3,4l-140 0z"/>
</svg>